<svg viewBox="0 0 240 240" xmlns="http://www.w3.org/2000/svg" fill="none" stroke="#0B2A4A" stroke-width="4.5" stroke-linecap="round" stroke-linejoin="round">
  <!-- مسجد — رسم خطّي أصلي مبسّط -->
  <line x1="30" y1="206" x2="210" y2="206"/>
  <!-- القبة -->
  <path d="M74 132 Q74 84 120 84 Q166 84 166 132 Z" fill="#0B2A4A" fill-opacity="0.06"/>
  <path d="M74 132 Q74 84 120 84 Q166 84 166 132"/>
  <line x1="120" y1="84" x2="120" y2="66"/>
  <path d="M120 66 a7 7 0 1 0 6 -6" />
  <!-- جسم المبنى -->
  <path d="M74 132 L74 206 M166 132 L166 206"/>
  <line x1="74" y1="132" x2="166" y2="132"/>
  <!-- المدخل المقوّس -->
  <path d="M104 206 L104 168 Q120 148 136 168 L136 206"/>
  <!-- المئذنة -->
  <path d="M180 206 L180 96 L192 96 L192 206" fill="#0B2A4A" fill-opacity="0.06"/>
  <path d="M180 96 Q186 78 192 96" />
  <line x1="186" y1="78" x2="186" y2="64"/>
  <path d="M186 64 a5.5 5.5 0 1 0 5 -5"/>
</svg>
