<svg viewBox="0 0 240 240" xmlns="http://www.w3.org/2000/svg" fill="none" stroke="#0B2A4A" stroke-width="4.5" stroke-linecap="round" stroke-linejoin="round">
  <!-- دلة القهوة العربية — رسم خطّي أصلي بلمسة مائية -->
  <path d="M96 120 Q80 138 82 168 Q84 196 120 200 Q156 196 158 168 Q160 138 144 120 Z" fill="#0B2A4A" fill-opacity="0.06"/>
  <!-- الجسم -->
  <path d="M98 120 Q82 140 84 168 Q86 196 120 200 Q154 196 156 168 Q158 140 142 120"/>
  <!-- الرقبة والفوهة -->
  <path d="M98 120 L100 96 L140 96 L142 120"/>
  <path d="M100 96 Q120 86 140 96"/>
  <!-- الصنبور (المنقار) -->
  <path d="M100 100 Q72 96 60 70 Q58 62 66 62"/>
  <!-- الغطاء المدبّب -->
  <path d="M108 96 L120 70 L132 96"/>
  <path d="M120 70 a5 5 0 1 0 4.5 -4.5"/>
  <!-- المقبض -->
  <path d="M142 108 Q170 112 168 150 Q166 176 148 184"/>
  <!-- القاعدة -->
  <path d="M104 200 L100 210 L140 210 L136 200"/>
</svg>
