<svg viewBox="0 0 240 240" xmlns="http://www.w3.org/2000/svg" fill="none" stroke="#0B2A4A" stroke-width="4.5" stroke-linecap="round" stroke-linejoin="round">
  <!-- لؤلؤ ومحار — رسم خطّي أصلي بلمسة مائية -->
  <!-- الصدفة السفلى -->
  <path d="M120 150 Q60 150 44 108 Q120 128 196 108 Q180 150 120 150 Z" fill="#0B2A4A" fill-opacity="0.06"/>
  <path d="M120 150 Q60 150 44 108 M120 150 Q180 150 196 108"/>
  <path d="M120 150 L94 112 M120 150 L120 108 M120 150 L146 112"/>
  <path d="M120 150 L70 116 M120 150 L170 116"/>
  <!-- الصدفة العليا -->
  <path d="M120 108 Q60 108 46 76 Q120 92 194 76 Q180 108 120 108 Z" fill="#0B2A4A" fill-opacity="0.05"/>
  <path d="M120 108 Q60 108 46 76 M120 108 Q180 108 194 76"/>
  <path d="M96 100 L84 80 M120 100 L120 78 M144 100 L156 80"/>
  <!-- اللؤلؤة -->
  <circle cx="120" cy="128" r="13" fill="#0B2A4A" fill-opacity="0.1"/>
  <circle cx="120" cy="128" r="13"/>
  <path d="M114 124 a5 5 0 0 1 5 -3" stroke-width="2.5"/>
</svg>
