<svg viewBox="0 0 240 240" xmlns="http://www.w3.org/2000/svg" fill="none" stroke="#0B2A4A" stroke-width="4.5" stroke-linecap="round" stroke-linejoin="round">
  <!-- صقر — رسم خطّي أصلي مبسّط -->
  <!-- الجسم والظهر -->
  <path d="M92 84 Q150 78 172 118 Q182 140 150 156 Q118 168 104 150 Q92 132 90 108 Z" fill="#0B2A4A" fill-opacity="0.06"/>
  <path d="M92 84 Q150 78 172 118 Q182 140 150 156"/>
  <!-- الصدر -->
  <path d="M92 96 Q86 128 108 152"/>
  <!-- الرأس والمنقار المعقوف -->
  <path d="M92 84 Q78 86 76 98 Q76 104 84 104"/>
  <path d="M76 98 Q66 100 64 108 Q68 110 74 106"/>
  <circle cx="86" cy="94" r="2.6" fill="#0B2A4A" stroke="none"/>
  <!-- الجناح المطوي -->
  <path d="M112 104 Q140 104 158 124"/>
  <path d="M116 116 Q140 118 152 134"/>
  <!-- الذيل -->
  <path d="M150 156 L156 188 M140 158 L146 190 M160 150 L168 184"/>
  <!-- القوائم والمجثم -->
  <path d="M112 156 L110 176 M126 158 L126 178"/>
  <line x1="86" y1="180" x2="158" y2="180"/>
</svg>
