<svg viewBox="0 0 240 240" xmlns="http://www.w3.org/2000/svg" fill="none" stroke="#0B2A4A" stroke-width="4.5" stroke-linecap="round" stroke-linejoin="round">
  <!-- برج التحرير — رسم خطّي أصلي مبسّط -->
  <line x1="66" y1="208" x2="174" y2="208"/>
  <!-- القاعدة العريضة -->
  <path d="M88 208 L98 150 L142 150 L152 208 Z" fill="#0B2A4A" fill-opacity="0.06"/>
  <path d="M88 208 L98 150 M152 208 L142 150"/>
  <!-- الجذع المتناقص -->
  <path d="M100 150 L110 96 L130 96 L140 150 Z" fill="#0B2A4A" fill-opacity="0.05"/>
  <path d="M100 150 L110 96 M140 150 L130 96"/>
  <!-- طوق المراقبة -->
  <path d="M102 108 L138 108 M104 96 L136 96"/>
  <ellipse cx="120" cy="88" rx="20" ry="9" fill="#0B2A4A" fill-opacity="0.06"/>
  <ellipse cx="120" cy="88" rx="20" ry="9"/>
  <!-- الجزء العلوي والهوائي -->
  <path d="M112 80 L116 52 L124 52 L128 80 Z"/>
  <line x1="120" y1="52" x2="120" y2="28"/>
</svg>
