<svg viewBox="0 0 240 240" xmlns="http://www.w3.org/2000/svg" fill="none" stroke="#0B2A4A" stroke-width="4.5" stroke-linecap="round" stroke-linejoin="round">
  <!-- وردة الأرفج (زهرة الكويت الوطنية) — رسم خطّي أصلي بلمسة مائية -->
  <!-- الساق والأوراق -->
  <path d="M120 210 Q116 168 120 132"/>
  <path d="M120 178 Q98 172 88 152 Q112 156 120 172"/>
  <path d="M120 190 Q142 184 152 164 Q128 168 120 184"/>
  <!-- البتلات -->
  <g fill="#0B2A4A" fill-opacity="0.06">
    <ellipse cx="120" cy="66" rx="9" ry="20"/>
    <ellipse cx="120" cy="66" rx="9" ry="20" transform="rotate(36 120 96)"/>
    <ellipse cx="120" cy="66" rx="9" ry="20" transform="rotate(72 120 96)"/>
    <ellipse cx="120" cy="66" rx="9" ry="20" transform="rotate(108 120 96)"/>
    <ellipse cx="120" cy="66" rx="9" ry="20" transform="rotate(144 120 96)"/>
    <ellipse cx="120" cy="66" rx="9" ry="20" transform="rotate(180 120 96)"/>
    <ellipse cx="120" cy="66" rx="9" ry="20" transform="rotate(216 120 96)"/>
    <ellipse cx="120" cy="66" rx="9" ry="20" transform="rotate(252 120 96)"/>
    <ellipse cx="120" cy="66" rx="9" ry="20" transform="rotate(288 120 96)"/>
    <ellipse cx="120" cy="66" rx="9" ry="20" transform="rotate(324 120 96)"/>
  </g>
  <g stroke-width="3.5">
    <ellipse cx="120" cy="66" rx="9" ry="20"/>
    <ellipse cx="120" cy="66" rx="9" ry="20" transform="rotate(36 120 96)"/>
    <ellipse cx="120" cy="66" rx="9" ry="20" transform="rotate(72 120 96)"/>
    <ellipse cx="120" cy="66" rx="9" ry="20" transform="rotate(108 120 96)"/>
    <ellipse cx="120" cy="66" rx="9" ry="20" transform="rotate(144 120 96)"/>
    <ellipse cx="120" cy="66" rx="9" ry="20" transform="rotate(180 120 96)"/>
    <ellipse cx="120" cy="66" rx="9" ry="20" transform="rotate(216 120 96)"/>
    <ellipse cx="120" cy="66" rx="9" ry="20" transform="rotate(252 120 96)"/>
    <ellipse cx="120" cy="66" rx="9" ry="20" transform="rotate(288 120 96)"/>
    <ellipse cx="120" cy="66" rx="9" ry="20" transform="rotate(324 120 96)"/>
  </g>
  <!-- القلب -->
  <circle cx="120" cy="96" r="13" fill="#0B2A4A" fill-opacity="0.14"/>
  <circle cx="120" cy="96" r="13"/>
</svg>
