<svg viewBox="0 0 240 240" xmlns="http://www.w3.org/2000/svg" fill="none" stroke="#0B2A4A" stroke-width="4.5" stroke-linecap="round" stroke-linejoin="round">
  <!-- مركب شراعي كويتي (بوم) — رسم خطّي أصلي بلمسة مائية -->
  <path d="M116 54 L116 150 L54 150 Z" fill="#0B2A4A" fill-opacity="0.06" stroke="none"/>
  <path d="M126 78 L126 150 L184 150 Z" fill="#0B2A4A" fill-opacity="0.06" stroke="none"/>
  <line x1="121" y1="46" x2="121" y2="156"/>
  <path d="M116 54 L116 150 L54 150 Z"/>
  <path d="M126 78 L126 150 L184 150 Z"/>
  <path d="M38 156 Q121 194 206 156 L186 178 Q121 200 58 178 Z" fill="#0B2A4A" fill-opacity="0.06"/>
  <path d="M30 198 q18 -11 36 0 t36 0 t36 0 t36 0 t30 0"/>
  <path d="M40 212 q18 -11 36 0 t36 0 t36 0 t36 0"/>
</svg>
