<svg viewBox="0 0 240 240" xmlns="http://www.w3.org/2000/svg" fill="none" stroke="#0B2A4A" stroke-width="4" stroke-linecap="round" stroke-linejoin="round">
  <!-- نقوش السدو — زخرفة هندسية أصلية -->
  <rect x="40" y="40" width="160" height="160" rx="4" fill="#0B2A4A" fill-opacity="0.05"/>
  <rect x="40" y="40" width="160" height="160" rx="4"/>
  <!-- شريط مثلثات علوي -->
  <path d="M40 78 L60 52 L80 78 L100 52 L120 78 L140 52 L160 78 L180 52 L200 78"/>
  <!-- معيّنات وسطى -->
  <path d="M70 120 L90 100 L110 120 L90 140 Z"/>
  <path d="M110 120 L130 100 L150 120 L130 140 Z"/>
  <line x1="90" y1="100" x2="90" y2="140"/>
  <line x1="130" y1="100" x2="130" y2="140"/>
  <!-- شريط مثلثات سفلي (معكوس) -->
  <path d="M40 162 L60 188 L80 162 L100 188 L120 162 L140 188 L160 162 L180 188 L200 162"/>
</svg>
