<svg viewBox="0 0 240 240" xmlns="http://www.w3.org/2000/svg" fill="none" stroke="#0B2A4A" stroke-width="4.5" stroke-linecap="round" stroke-linejoin="round">
  <!-- نخلة — رسم خطّي أصلي بلمسة مائية -->
  <path d="M112 208 C112 160 110 130 118 112 C126 130 128 160 128 208 Z" fill="#0B2A4A" fill-opacity="0.06" stroke="none"/>
  <path d="M114 208 C114 160 112 132 120 112 M126 208 C126 162 126 132 120 112"/>
  <line x1="116" y1="150" x2="124" y2="150"/>
  <line x1="115" y1="132" x2="125" y2="132"/>
  <!-- السعف -->
  <path d="M120 110 C92 96 66 96 44 108 C70 100 96 104 120 110"/>
  <path d="M120 110 C148 96 174 96 196 108 C170 100 144 104 120 110"/>
  <path d="M120 108 C104 82 82 66 58 58 C84 74 106 92 120 108"/>
  <path d="M120 108 C136 82 158 66 182 58 C156 74 134 92 120 108"/>
  <path d="M120 106 C116 78 118 52 120 34 C122 52 124 78 120 106"/>
  <!-- عذوق التمر -->
  <circle cx="108" cy="116" r="3.2" fill="#0B2A4A" fill-opacity="0.5" stroke="none"/>
  <circle cx="133" cy="116" r="3.2" fill="#0B2A4A" fill-opacity="0.5" stroke="none"/>
  <circle cx="120" cy="122" r="3.2" fill="#0B2A4A" fill-opacity="0.5" stroke="none"/>
</svg>
