<svg viewBox="0 0 240 240" xmlns="http://www.w3.org/2000/svg" fill="none" stroke="#0B2A4A" stroke-width="4.5" stroke-linecap="round" stroke-linejoin="round">
  <!-- بوابة سور الكويت — رسم خطّي أصلي مبسّط -->
  <line x1="30" y1="206" x2="210" y2="206"/>
  <!-- البرجان الجانبيان -->
  <path d="M44 206 L44 96 Q44 78 62 78 Q80 78 80 96 L80 206" fill="#0B2A4A" fill-opacity="0.05"/>
  <path d="M160 206 L160 96 Q160 78 178 78 Q196 78 196 96 L196 206" fill="#0B2A4A" fill-opacity="0.05"/>
  <!-- الجسم الأوسط بالقوس المدبّب -->
  <path d="M80 206 L80 120 Q120 60 160 120 L160 206" fill="#0B2A4A" fill-opacity="0.05"/>
  <!-- فتحة البوابة -->
  <path d="M100 206 L100 150 Q120 118 140 150 L140 206"/>
  <!-- شرفات -->
  <path d="M50 78 L50 66 L58 66 L58 78 M66 78 L66 66 L74 66 L74 78"/>
  <path d="M166 78 L166 66 L174 66 L174 78 M182 78 L182 66 L190 66 L190 78"/>
</svg>
