<svg viewBox="0 0 240 240" xmlns="http://www.w3.org/2000/svg" fill="none" stroke="#0B2A4A" stroke-width="4.5" stroke-linecap="round" stroke-linejoin="round">
  <!-- علم الكويت — رسم خطّي فنّي أصلي (خفّاق) -->
  <!-- السارية -->
  <line x1="56" y1="210" x2="56" y2="52"/>
  <circle cx="56" cy="46" r="6" fill="#0B2A4A" fill-opacity="0.1"/>
  <circle cx="56" cy="46" r="6"/>
  <!-- جسم العلم الخفّاق -->
  <path d="M56 60 Q104 50 152 62 Q182 70 210 60 L210 132 Q182 142 152 134 Q104 122 56 132 Z" fill="#0B2A4A" fill-opacity="0.05"/>
  <path d="M56 60 Q104 50 152 62 Q182 70 210 60 L210 132 Q182 142 152 134 Q104 122 56 132 Z"/>
  <!-- المثلّث (السداة) عند السارية -->
  <path d="M56 60 L110 96 L56 132 Z" fill="#0B2A4A" fill-opacity="0.12"/>
  <path d="M56 60 L110 96 L56 132"/>
  <!-- الشريطان الفاصلان الأفقيان -->
  <path d="M110 84 Q150 80 210 84" stroke-width="3"/>
  <path d="M110 108 Q150 112 210 108" stroke-width="3"/>
</svg>
